<?xml version="1.0" encoding="utf-8"?>
<svg xmlns="http://www.w3.org/2000/svg" xmlns:xlink="http://www.w3.org/1999/xlink" xml:space="preserve" width="980" height="980" viewBox="0 0 980 980"><rect width="980" height="980" fill="#ffffff" x="0" y="0"/><g fill="#000000">
<g transform="translate(200,40) scale(3.4333333333333)"><rect width="6" height="6"/></g>
<g transform="translate(240,40) scale(3.4333333333333)"><rect width="6" height="6"/></g>
<g transform="translate(260,40) scale(3.4333333333333)"><rect width="6" height="6"/></g>
<g transform="translate(280,40) scale(3.4333333333333)"><rect width="6" height="6"/></g>
<g transform="translate(320,40) scale(3.4333333333333)"><rect width="6" height="6"/></g>
<g transform="translate(340,40) scale(3.4333333333333)"><rect width="6" height="6"/></g>
<g transform="translate(380,40) scale(3.4333333333333)"><rect width="6" height="6"/></g>
<g transform="translate(420,40) scale(3.4333333333333)"><rect width="6" height="6"/></g>
<g transform="translate(440,40) scale(3.4333333333333)"><rect width="6" height="6"/></g>
<g transform="translate(460,40) scale(3.4333333333333)"><rect width="6" height="6"/></g>
<g transform="translate(500,40) scale(3.4333333333333)"><rect width="6" height="6"/></g>
<g transform="translate(540,40) scale(3.4333333333333)"><rect width="6" height="6"/></g>
<g transform="translate(620,40) scale(3.4333333333333)"><rect width="6" height="6"/></g>
<g transform="translate(640,40) scale(3.4333333333333)"><rect width="6" height="6"/></g>
<g transform="translate(660,40) scale(3.4333333333333)"><rect width="6" height="6"/></g>
<g transform="translate(680,40) scale(3.4333333333333)"><rect width="6" height="6"/></g>
<g transform="translate(760,40) scale(3.4333333333333)"><rect width="6" height="6"/></g>
<g transform="translate(220,60) scale(3.4333333333333)"><rect width="6" height="6"/></g>
<g transform="translate(260,60) scale(3.4333333333333)"><rect width="6" height="6"/></g>
<g transform="translate(280,60) scale(3.4333333333333)"><rect width="6" height="6"/></g>
<g transform="translate(320,60) scale(3.4333333333333)"><rect width="6" height="6"/></g>
<g transform="translate(360,60) scale(3.4333333333333)"><rect width="6" height="6"/></g>
<g transform="translate(380,60) scale(3.4333333333333)"><rect width="6" height="6"/></g>
<g transform="translate(400,60) scale(3.4333333333333)"><rect width="6" height="6"/></g>
<g transform="translate(460,60) scale(3.4333333333333)"><rect width="6" height="6"/></g>
<g transform="translate(500,60) scale(3.4333333333333)"><rect width="6" height="6"/></g>
<g transform="translate(540,60) scale(3.4333333333333)"><rect width="6" height="6"/></g>
<g transform="translate(560,60) scale(3.4333333333333)"><rect width="6" height="6"/></g>
<g transform="translate(580,60) scale(3.4333333333333)"><rect width="6" height="6"/></g>
<g transform="translate(600,60) scale(3.4333333333333)"><rect width="6" height="6"/></g>
<g transform="translate(620,60) scale(3.4333333333333)"><rect width="6" height="6"/></g>
<g transform="translate(660,60) scale(3.4333333333333)"><rect width="6" height="6"/></g>
<g transform="translate(740,60) scale(3.4333333333333)"><rect width="6" height="6"/></g>
<g transform="translate(280,80) scale(3.4333333333333)"><rect width="6" height="6"/></g>
<g transform="translate(380,80) scale(3.4333333333333)"><rect width="6" height="6"/></g>
<g transform="translate(400,80) scale(3.4333333333333)"><rect width="6" height="6"/></g>
<g transform="translate(480,80) scale(3.4333333333333)"><rect width="6" height="6"/></g>
<g transform="translate(600,80) scale(3.4333333333333)"><rect width="6" height="6"/></g>
<g transform="translate(620,80) scale(3.4333333333333)"><rect width="6" height="6"/></g>
<g transform="translate(660,80) scale(3.4333333333333)"><rect width="6" height="6"/></g>
<g transform="translate(700,80) scale(3.4333333333333)"><rect width="6" height="6"/></g>
<g transform="translate(740,80) scale(3.4333333333333)"><rect width="6" height="6"/></g>
<g transform="translate(280,100) scale(3.4333333333333)"><rect width="6" height="6"/></g>
<g transform="translate(360,100) scale(3.4333333333333)"><rect width="6" height="6"/></g>
<g transform="translate(400,100) scale(3.4333333333333)"><rect width="6" height="6"/></g>
<g transform="translate(460,100) scale(3.4333333333333)"><rect width="6" height="6"/></g>
<g transform="translate(500,100) scale(3.4333333333333)"><rect width="6" height="6"/></g>
<g transform="translate(540,100) scale(3.4333333333333)"><rect width="6" height="6"/></g>
<g transform="translate(620,100) scale(3.4333333333333)"><rect width="6" height="6"/></g>
<g transform="translate(640,100) scale(3.4333333333333)"><rect width="6" height="6"/></g>
<g transform="translate(740,100) scale(3.4333333333333)"><rect width="6" height="6"/></g>
<g transform="translate(760,100) scale(3.4333333333333)"><rect width="6" height="6"/></g>
<g transform="translate(200,120) scale(3.4333333333333)"><rect width="6" height="6"/></g>
<g transform="translate(220,120) scale(3.4333333333333)"><rect width="6" height="6"/></g>
<g transform="translate(240,120) scale(3.4333333333333)"><rect width="6" height="6"/></g>
<g transform="translate(260,120) scale(3.4333333333333)"><rect width="6" height="6"/></g>
<g transform="translate(300,120) scale(3.4333333333333)"><rect width="6" height="6"/></g>
<g transform="translate(340,120) scale(3.4333333333333)"><rect width="6" height="6"/></g>
<g transform="translate(420,120) scale(3.4333333333333)"><rect width="6" height="6"/></g>
<g transform="translate(440,120) scale(3.4333333333333)"><rect width="6" height="6"/></g>
<g transform="translate(460,120) scale(3.4333333333333)"><rect width="6" height="6"/></g>
<g transform="translate(480,120) scale(3.4333333333333)"><rect width="6" height="6"/></g>
<g transform="translate(500,120) scale(3.4333333333333)"><rect width="6" height="6"/></g>
<g transform="translate(520,120) scale(3.4333333333333)"><rect width="6" height="6"/></g>
<g transform="translate(600,120) scale(3.4333333333333)"><rect width="6" height="6"/></g>
<g transform="translate(640,120) scale(3.4333333333333)"><rect width="6" height="6"/></g>
<g transform="translate(660,120) scale(3.4333333333333)"><rect width="6" height="6"/></g>
<g transform="translate(720,120) scale(3.4333333333333)"><rect width="6" height="6"/></g>
<g transform="translate(740,120) scale(3.4333333333333)"><rect width="6" height="6"/></g>
<g transform="translate(760,120) scale(3.4333333333333)"><rect width="6" height="6"/></g>
<g transform="translate(200,140) scale(3.4333333333333)"><rect width="6" height="6"/></g>
<g transform="translate(220,140) scale(3.4333333333333)"><rect width="6" height="6"/></g>
<g transform="translate(240,140) scale(3.4333333333333)"><rect width="6" height="6"/></g>
<g transform="translate(300,140) scale(3.4333333333333)"><rect width="6" height="6"/></g>
<g transform="translate(320,140) scale(3.4333333333333)"><rect width="6" height="6"/></g>
<g transform="translate(360,140) scale(3.4333333333333)"><rect width="6" height="6"/></g>
<g transform="translate(380,140) scale(3.4333333333333)"><rect width="6" height="6"/></g>
<g transform="translate(420,140) scale(3.4333333333333)"><rect width="6" height="6"/></g>
<g transform="translate(440,140) scale(3.4333333333333)"><rect width="6" height="6"/></g>
<g transform="translate(520,140) scale(3.4333333333333)"><rect width="6" height="6"/></g>
<g transform="translate(540,140) scale(3.4333333333333)"><rect width="6" height="6"/></g>
<g transform="translate(580,140) scale(3.4333333333333)"><rect width="6" height="6"/></g>
<g transform="translate(200,160) scale(3.4333333333333)"><rect width="6" height="6"/></g>
<g transform="translate(240,160) scale(3.4333333333333)"><rect width="6" height="6"/></g>
<g transform="translate(280,160) scale(3.4333333333333)"><rect width="6" height="6"/></g>
<g transform="translate(320,160) scale(3.4333333333333)"><rect width="6" height="6"/></g>
<g transform="translate(360,160) scale(3.4333333333333)"><rect width="6" height="6"/></g>
<g transform="translate(400,160) scale(3.4333333333333)"><rect width="6" height="6"/></g>
<g transform="translate(440,160) scale(3.4333333333333)"><rect width="6" height="6"/></g>
<g transform="translate(480,160) scale(3.4333333333333)"><rect width="6" height="6"/></g>
<g transform="translate(520,160) scale(3.4333333333333)"><rect width="6" height="6"/></g>
<g transform="translate(560,160) scale(3.4333333333333)"><rect width="6" height="6"/></g>
<g transform="translate(600,160) scale(3.4333333333333)"><rect width="6" height="6"/></g>
<g transform="translate(640,160) scale(3.4333333333333)"><rect width="6" height="6"/></g>
<g transform="translate(680,160) scale(3.4333333333333)"><rect width="6" height="6"/></g>
<g transform="translate(720,160) scale(3.4333333333333)"><rect width="6" height="6"/></g>
<g transform="translate(760,160) scale(3.4333333333333)"><rect width="6" height="6"/></g>
<g transform="translate(240,180) scale(3.4333333333333)"><rect width="6" height="6"/></g>
<g transform="translate(260,180) scale(3.4333333333333)"><rect width="6" height="6"/></g>
<g transform="translate(300,180) scale(3.4333333333333)"><rect width="6" height="6"/></g>
<g transform="translate(340,180) scale(3.4333333333333)"><rect width="6" height="6"/></g>
<g transform="translate(380,180) scale(3.4333333333333)"><rect width="6" height="6"/></g>
<g transform="translate(420,180) scale(3.4333333333333)"><rect width="6" height="6"/></g>
<g transform="translate(440,180) scale(3.4333333333333)"><rect width="6" height="6"/></g>
<g transform="translate(520,180) scale(3.4333333333333)"><rect width="6" height="6"/></g>
<g transform="translate(540,180) scale(3.4333333333333)"><rect width="6" height="6"/></g>
<g transform="translate(580,180) scale(3.4333333333333)"><rect width="6" height="6"/></g>
<g transform="translate(600,180) scale(3.4333333333333)"><rect width="6" height="6"/></g>
<g transform="translate(640,180) scale(3.4333333333333)"><rect width="6" height="6"/></g>
<g transform="translate(680,180) scale(3.4333333333333)"><rect width="6" height="6"/></g>
<g transform="translate(720,180) scale(3.4333333333333)"><rect width="6" height="6"/></g>
<g transform="translate(740,180) scale(3.4333333333333)"><rect width="6" height="6"/></g>
<g transform="translate(760,180) scale(3.4333333333333)"><rect width="6" height="6"/></g>
<g transform="translate(60,200) scale(3.4333333333333)"><rect width="6" height="6"/></g>
<g transform="translate(80,200) scale(3.4333333333333)"><rect width="6" height="6"/></g>
<g transform="translate(100,200) scale(3.4333333333333)"><rect width="6" height="6"/></g>
<g transform="translate(120,200) scale(3.4333333333333)"><rect width="6" height="6"/></g>
<g transform="translate(140,200) scale(3.4333333333333)"><rect width="6" height="6"/></g>
<g transform="translate(160,200) scale(3.4333333333333)"><rect width="6" height="6"/></g>
<g transform="translate(180,200) scale(3.4333333333333)"><rect width="6" height="6"/></g>
<g transform="translate(220,200) scale(3.4333333333333)"><rect width="6" height="6"/></g>
<g transform="translate(280,200) scale(3.4333333333333)"><rect width="6" height="6"/></g>
<g transform="translate(360,200) scale(3.4333333333333)"><rect width="6" height="6"/></g>
<g transform="translate(380,200) scale(3.4333333333333)"><rect width="6" height="6"/></g>
<g transform="translate(400,200) scale(3.4333333333333)"><rect width="6" height="6"/></g>
<g transform="translate(440,200) scale(3.4333333333333)"><rect width="6" height="6"/></g>
<g transform="translate(460,200) scale(3.4333333333333)"><rect width="6" height="6"/></g>
<g transform="translate(480,200) scale(3.4333333333333)"><rect width="6" height="6"/></g>
<g transform="translate(500,200) scale(3.4333333333333)"><rect width="6" height="6"/></g>
<g transform="translate(520,200) scale(3.4333333333333)"><rect width="6" height="6"/></g>
<g transform="translate(540,200) scale(3.4333333333333)"><rect width="6" height="6"/></g>
<g transform="translate(620,200) scale(3.4333333333333)"><rect width="6" height="6"/></g>
<g transform="translate(660,200) scale(3.4333333333333)"><rect width="6" height="6"/></g>
<g transform="translate(700,200) scale(3.4333333333333)"><rect width="6" height="6"/></g>
<g transform="translate(720,200) scale(3.4333333333333)"><rect width="6" height="6"/></g>
<g transform="translate(820,200) scale(3.4333333333333)"><rect width="6" height="6"/></g>
<g transform="translate(840,200) scale(3.4333333333333)"><rect width="6" height="6"/></g>
<g transform="translate(920,200) scale(3.4333333333333)"><rect width="6" height="6"/></g>
<g transform="translate(40,220) scale(3.4333333333333)"><rect width="6" height="6"/></g>
<g transform="translate(200,220) scale(3.4333333333333)"><rect width="6" height="6"/></g>
<g transform="translate(260,220) scale(3.4333333333333)"><rect width="6" height="6"/></g>
<g transform="translate(300,220) scale(3.4333333333333)"><rect width="6" height="6"/></g>
<g transform="translate(480,220) scale(3.4333333333333)"><rect width="6" height="6"/></g>
<g transform="translate(500,220) scale(3.4333333333333)"><rect width="6" height="6"/></g>
<g transform="translate(540,220) scale(3.4333333333333)"><rect width="6" height="6"/></g>
<g transform="translate(580,220) scale(3.4333333333333)"><rect width="6" height="6"/></g>
<g transform="translate(620,220) scale(3.4333333333333)"><rect width="6" height="6"/></g>
<g transform="translate(640,220) scale(3.4333333333333)"><rect width="6" height="6"/></g>
<g transform="translate(660,220) scale(3.4333333333333)"><rect width="6" height="6"/></g>
<g transform="translate(680,220) scale(3.4333333333333)"><rect width="6" height="6"/></g>
<g transform="translate(740,220) scale(3.4333333333333)"><rect width="6" height="6"/></g>
<g transform="translate(760,220) scale(3.4333333333333)"><rect width="6" height="6"/></g>
<g transform="translate(780,220) scale(3.4333333333333)"><rect width="6" height="6"/></g>
<g transform="translate(820,220) scale(3.4333333333333)"><rect width="6" height="6"/></g>
<g transform="translate(860,220) scale(3.4333333333333)"><rect width="6" height="6"/></g>
<g transform="translate(880,220) scale(3.4333333333333)"><rect width="6" height="6"/></g>
<g transform="translate(920,220) scale(3.4333333333333)"><rect width="6" height="6"/></g>
<g transform="translate(60,240) scale(3.4333333333333)"><rect width="6" height="6"/></g>
<g transform="translate(80,240) scale(3.4333333333333)"><rect width="6" height="6"/></g>
<g transform="translate(100,240) scale(3.4333333333333)"><rect width="6" height="6"/></g>
<g transform="translate(160,240) scale(3.4333333333333)"><rect width="6" height="6"/></g>
<g transform="translate(200,240) scale(3.4333333333333)"><rect width="6" height="6"/></g>
<g transform="translate(260,240) scale(3.4333333333333)"><rect width="6" height="6"/></g>
<g transform="translate(280,240) scale(3.4333333333333)"><rect width="6" height="6"/></g>
<g transform="translate(400,240) scale(3.4333333333333)"><rect width="6" height="6"/></g>
<g transform="translate(420,240) scale(3.4333333333333)"><rect width="6" height="6"/></g>
<g transform="translate(480,240) scale(3.4333333333333)"><rect width="6" height="6"/></g>
<g transform="translate(520,240) scale(3.4333333333333)"><rect width="6" height="6"/></g>
<g transform="translate(560,240) scale(3.4333333333333)"><rect width="6" height="6"/></g>
<g transform="translate(620,240) scale(3.4333333333333)"><rect width="6" height="6"/></g>
<g transform="translate(700,240) scale(3.4333333333333)"><rect width="6" height="6"/></g>
<g transform="translate(720,240) scale(3.4333333333333)"><rect width="6" height="6"/></g>
<g transform="translate(740,240) scale(3.4333333333333)"><rect width="6" height="6"/></g>
<g transform="translate(780,240) scale(3.4333333333333)"><rect width="6" height="6"/></g>
<g transform="translate(800,240) scale(3.4333333333333)"><rect width="6" height="6"/></g>
<g transform="translate(880,240) scale(3.4333333333333)"><rect width="6" height="6"/></g>
<g transform="translate(900,240) scale(3.4333333333333)"><rect width="6" height="6"/></g>
<g transform="translate(60,260) scale(3.4333333333333)"><rect width="6" height="6"/></g>
<g transform="translate(80,260) scale(3.4333333333333)"><rect width="6" height="6"/></g>
<g transform="translate(100,260) scale(3.4333333333333)"><rect width="6" height="6"/></g>
<g transform="translate(140,260) scale(3.4333333333333)"><rect width="6" height="6"/></g>
<g transform="translate(180,260) scale(3.4333333333333)"><rect width="6" height="6"/></g>
<g transform="translate(200,260) scale(3.4333333333333)"><rect width="6" height="6"/></g>
<g transform="translate(240,260) scale(3.4333333333333)"><rect width="6" height="6"/></g>
<g transform="translate(400,260) scale(3.4333333333333)"><rect width="6" height="6"/></g>
<g transform="translate(420,260) scale(3.4333333333333)"><rect width="6" height="6"/></g>
<g transform="translate(540,260) scale(3.4333333333333)"><rect width="6" height="6"/></g>
<g transform="translate(600,260) scale(3.4333333333333)"><rect width="6" height="6"/></g>
<g transform="translate(620,260) scale(3.4333333333333)"><rect width="6" height="6"/></g>
<g transform="translate(680,260) scale(3.4333333333333)"><rect width="6" height="6"/></g>
<g transform="translate(720,260) scale(3.4333333333333)"><rect width="6" height="6"/></g>
<g transform="translate(740,260) scale(3.4333333333333)"><rect width="6" height="6"/></g>
<g transform="translate(760,260) scale(3.4333333333333)"><rect width="6" height="6"/></g>
<g transform="translate(820,260) scale(3.4333333333333)"><rect width="6" height="6"/></g>
<g transform="translate(880,260) scale(3.4333333333333)"><rect width="6" height="6"/></g>
<g transform="translate(80,280) scale(3.4333333333333)"><rect width="6" height="6"/></g>
<g transform="translate(160,280) scale(3.4333333333333)"><rect width="6" height="6"/></g>
<g transform="translate(220,280) scale(3.4333333333333)"><rect width="6" height="6"/></g>
<g transform="translate(240,280) scale(3.4333333333333)"><rect width="6" height="6"/></g>
<g transform="translate(280,280) scale(3.4333333333333)"><rect width="6" height="6"/></g>
<g transform="translate(300,280) scale(3.4333333333333)"><rect width="6" height="6"/></g>
<g transform="translate(320,280) scale(3.4333333333333)"><rect width="6" height="6"/></g>
<g transform="translate(400,280) scale(3.4333333333333)"><rect width="6" height="6"/></g>
<g transform="translate(420,280) scale(3.4333333333333)"><rect width="6" height="6"/></g>
<g transform="translate(460,280) scale(3.4333333333333)"><rect width="6" height="6"/></g>
<g transform="translate(620,280) scale(3.4333333333333)"><rect width="6" height="6"/></g>
<g transform="translate(640,280) scale(3.4333333333333)"><rect width="6" height="6"/></g>
<g transform="translate(660,280) scale(3.4333333333333)"><rect width="6" height="6"/></g>
<g transform="translate(700,280) scale(3.4333333333333)"><rect width="6" height="6"/></g>
<g transform="translate(720,280) scale(3.4333333333333)"><rect width="6" height="6"/></g>
<g transform="translate(780,280) scale(3.4333333333333)"><rect width="6" height="6"/></g>
<g transform="translate(820,280) scale(3.4333333333333)"><rect width="6" height="6"/></g>
<g transform="translate(900,280) scale(3.4333333333333)"><rect width="6" height="6"/></g>
<g transform="translate(40,300) scale(3.4333333333333)"><rect width="6" height="6"/></g>
<g transform="translate(100,300) scale(3.4333333333333)"><rect width="6" height="6"/></g>
<g transform="translate(120,300) scale(3.4333333333333)"><rect width="6" height="6"/></g>
<g transform="translate(200,300) scale(3.4333333333333)"><rect width="6" height="6"/></g>
<g transform="translate(220,300) scale(3.4333333333333)"><rect width="6" height="6"/></g>
<g transform="translate(240,300) scale(3.4333333333333)"><rect width="6" height="6"/></g>
<g transform="translate(300,300) scale(3.4333333333333)"><rect width="6" height="6"/></g>
<g transform="translate(320,300) scale(3.4333333333333)"><rect width="6" height="6"/></g>
<g transform="translate(360,300) scale(3.4333333333333)"><rect width="6" height="6"/></g>
<g transform="translate(380,300) scale(3.4333333333333)"><rect width="6" height="6"/></g>
<g transform="translate(440,300) scale(3.4333333333333)"><rect width="6" height="6"/></g>
<g transform="translate(460,300) scale(3.4333333333333)"><rect width="6" height="6"/></g>
<g transform="translate(500,300) scale(3.4333333333333)"><rect width="6" height="6"/></g>
<g transform="translate(540,300) scale(3.4333333333333)"><rect width="6" height="6"/></g>
<g transform="translate(580,300) scale(3.4333333333333)"><rect width="6" height="6"/></g>
<g transform="translate(620,300) scale(3.4333333333333)"><rect width="6" height="6"/></g>
<g transform="translate(640,300) scale(3.4333333333333)"><rect width="6" height="6"/></g>
<g transform="translate(660,300) scale(3.4333333333333)"><rect width="6" height="6"/></g>
<g transform="translate(720,300) scale(3.4333333333333)"><rect width="6" height="6"/></g>
<g transform="translate(740,300) scale(3.4333333333333)"><rect width="6" height="6"/></g>
<g transform="translate(760,300) scale(3.4333333333333)"><rect width="6" height="6"/></g>
<g transform="translate(780,300) scale(3.4333333333333)"><rect width="6" height="6"/></g>
<g transform="translate(840,300) scale(3.4333333333333)"><rect width="6" height="6"/></g>
<g transform="translate(880,300) scale(3.4333333333333)"><rect width="6" height="6"/></g>
<g transform="translate(920,300) scale(3.4333333333333)"><rect width="6" height="6"/></g>
<g transform="translate(40,320) scale(3.4333333333333)"><rect width="6" height="6"/></g>
<g transform="translate(160,320) scale(3.4333333333333)"><rect width="6" height="6"/></g>
<g transform="translate(220,320) scale(3.4333333333333)"><rect width="6" height="6"/></g>
<g transform="translate(260,320) scale(3.4333333333333)"><rect width="6" height="6"/></g>
<g transform="translate(300,320) scale(3.4333333333333)"><rect width="6" height="6"/></g>
<g transform="translate(340,320) scale(3.4333333333333)"><rect width="6" height="6"/></g>
<g transform="translate(420,320) scale(3.4333333333333)"><rect width="6" height="6"/></g>
<g transform="translate(440,320) scale(3.4333333333333)"><rect width="6" height="6"/></g>
<g transform="translate(460,320) scale(3.4333333333333)"><rect width="6" height="6"/></g>
<g transform="translate(520,320) scale(3.4333333333333)"><rect width="6" height="6"/></g>
<g transform="translate(560,320) scale(3.4333333333333)"><rect width="6" height="6"/></g>
<g transform="translate(660,320) scale(3.4333333333333)"><rect width="6" height="6"/></g>
<g transform="translate(680,320) scale(3.4333333333333)"><rect width="6" height="6"/></g>
<g transform="translate(700,320) scale(3.4333333333333)"><rect width="6" height="6"/></g>
<g transform="translate(780,320) scale(3.4333333333333)"><rect width="6" height="6"/></g>
<g transform="translate(800,320) scale(3.4333333333333)"><rect width="6" height="6"/></g>
<g transform="translate(820,320) scale(3.4333333333333)"><rect width="6" height="6"/></g>
<g transform="translate(900,320) scale(3.4333333333333)"><rect width="6" height="6"/></g>
<g transform="translate(60,340) scale(3.4333333333333)"><rect width="6" height="6"/></g>
<g transform="translate(100,340) scale(3.4333333333333)"><rect width="6" height="6"/></g>
<g transform="translate(220,340) scale(3.4333333333333)"><rect width="6" height="6"/></g>
<g transform="translate(280,340) scale(3.4333333333333)"><rect width="6" height="6"/></g>
<g transform="translate(300,340) scale(3.4333333333333)"><rect width="6" height="6"/></g>
<g transform="translate(340,340) scale(3.4333333333333)"><rect width="6" height="6"/></g>
<g transform="translate(380,340) scale(3.4333333333333)"><rect width="6" height="6"/></g>
<g transform="translate(400,340) scale(3.4333333333333)"><rect width="6" height="6"/></g>
<g transform="translate(520,340) scale(3.4333333333333)"><rect width="6" height="6"/></g>
<g transform="translate(540,340) scale(3.4333333333333)"><rect width="6" height="6"/></g>
<g transform="translate(600,340) scale(3.4333333333333)"><rect width="6" height="6"/></g>
<g transform="translate(620,340) scale(3.4333333333333)"><rect width="6" height="6"/></g>
<g transform="translate(660,340) scale(3.4333333333333)"><rect width="6" height="6"/></g>
<g transform="translate(680,340) scale(3.4333333333333)"><rect width="6" height="6"/></g>
<g transform="translate(700,340) scale(3.4333333333333)"><rect width="6" height="6"/></g>
<g transform="translate(720,340) scale(3.4333333333333)"><rect width="6" height="6"/></g>
<g transform="translate(740,340) scale(3.4333333333333)"><rect width="6" height="6"/></g>
<g transform="translate(780,340) scale(3.4333333333333)"><rect width="6" height="6"/></g>
<g transform="translate(820,340) scale(3.4333333333333)"><rect width="6" height="6"/></g>
<g transform="translate(840,340) scale(3.4333333333333)"><rect width="6" height="6"/></g>
<g transform="translate(860,340) scale(3.4333333333333)"><rect width="6" height="6"/></g>
<g transform="translate(880,340) scale(3.4333333333333)"><rect width="6" height="6"/></g>
<g transform="translate(920,340) scale(3.4333333333333)"><rect width="6" height="6"/></g>
<g transform="translate(80,360) scale(3.4333333333333)"><rect width="6" height="6"/></g>
<g transform="translate(100,360) scale(3.4333333333333)"><rect width="6" height="6"/></g>
<g transform="translate(140,360) scale(3.4333333333333)"><rect width="6" height="6"/></g>
<g transform="translate(160,360) scale(3.4333333333333)"><rect width="6" height="6"/></g>
<g transform="translate(200,360) scale(3.4333333333333)"><rect width="6" height="6"/></g>
<g transform="translate(220,360) scale(3.4333333333333)"><rect width="6" height="6"/></g>
<g transform="translate(240,360) scale(3.4333333333333)"><rect width="6" height="6"/></g>
<g transform="translate(280,360) scale(3.4333333333333)"><rect width="6" height="6"/></g>
<g transform="translate(300,360) scale(3.4333333333333)"><rect width="6" height="6"/></g>
<g transform="translate(320,360) scale(3.4333333333333)"><rect width="6" height="6"/></g>
<g transform="translate(440,360) scale(3.4333333333333)"><rect width="6" height="6"/></g>
<g transform="translate(460,360) scale(3.4333333333333)"><rect width="6" height="6"/></g>
<g transform="translate(520,360) scale(3.4333333333333)"><rect width="6" height="6"/></g>
<g transform="translate(620,360) scale(3.4333333333333)"><rect width="6" height="6"/></g>
<g transform="translate(660,360) scale(3.4333333333333)"><rect width="6" height="6"/></g>
<g transform="translate(700,360) scale(3.4333333333333)"><rect width="6" height="6"/></g>
<g transform="translate(720,360) scale(3.4333333333333)"><rect width="6" height="6"/></g>
<g transform="translate(740,360) scale(3.4333333333333)"><rect width="6" height="6"/></g>
<g transform="translate(820,360) scale(3.4333333333333)"><rect width="6" height="6"/></g>
<g transform="translate(900,360) scale(3.4333333333333)"><rect width="6" height="6"/></g>
<g transform="translate(920,360) scale(3.4333333333333)"><rect width="6" height="6"/></g>
<g transform="translate(40,380) scale(3.4333333333333)"><rect width="6" height="6"/></g>
<g transform="translate(100,380) scale(3.4333333333333)"><rect width="6" height="6"/></g>
<g transform="translate(120,380) scale(3.4333333333333)"><rect width="6" height="6"/></g>
<g transform="translate(200,380) scale(3.4333333333333)"><rect width="6" height="6"/></g>
<g transform="translate(220,380) scale(3.4333333333333)"><rect width="6" height="6"/></g>
<g transform="translate(260,380) scale(3.4333333333333)"><rect width="6" height="6"/></g>
<g transform="translate(280,380) scale(3.4333333333333)"><rect width="6" height="6"/></g>
<g transform="translate(360,380) scale(3.4333333333333)"><rect width="6" height="6"/></g>
<g transform="translate(380,380) scale(3.4333333333333)"><rect width="6" height="6"/></g>
<g transform="translate(400,380) scale(3.4333333333333)"><rect width="6" height="6"/></g>
<g transform="translate(420,380) scale(3.4333333333333)"><rect width="6" height="6"/></g>
<g transform="translate(460,380) scale(3.4333333333333)"><rect width="6" height="6"/></g>
<g transform="translate(520,380) scale(3.4333333333333)"><rect width="6" height="6"/></g>
<g transform="translate(540,380) scale(3.4333333333333)"><rect width="6" height="6"/></g>
<g transform="translate(580,380) scale(3.4333333333333)"><rect width="6" height="6"/></g>
<g transform="translate(600,380) scale(3.4333333333333)"><rect width="6" height="6"/></g>
<g transform="translate(620,380) scale(3.4333333333333)"><rect width="6" height="6"/></g>
<g transform="translate(640,380) scale(3.4333333333333)"><rect width="6" height="6"/></g>
<g transform="translate(660,380) scale(3.4333333333333)"><rect width="6" height="6"/></g>
<g transform="translate(700,380) scale(3.4333333333333)"><rect width="6" height="6"/></g>
<g transform="translate(760,380) scale(3.4333333333333)"><rect width="6" height="6"/></g>
<g transform="translate(840,380) scale(3.4333333333333)"><rect width="6" height="6"/></g>
<g transform="translate(860,380) scale(3.4333333333333)"><rect width="6" height="6"/></g>
<g transform="translate(920,380) scale(3.4333333333333)"><rect width="6" height="6"/></g>
<g transform="translate(80,400) scale(3.4333333333333)"><rect width="6" height="6"/></g>
<g transform="translate(160,400) scale(3.4333333333333)"><rect width="6" height="6"/></g>
<g transform="translate(180,400) scale(3.4333333333333)"><rect width="6" height="6"/></g>
<g transform="translate(220,400) scale(3.4333333333333)"><rect width="6" height="6"/></g>
<g transform="translate(260,400) scale(3.4333333333333)"><rect width="6" height="6"/></g>
<g transform="translate(280,400) scale(3.4333333333333)"><rect width="6" height="6"/></g>
<g transform="translate(300,400) scale(3.4333333333333)"><rect width="6" height="6"/></g>
<g transform="translate(320,400) scale(3.4333333333333)"><rect width="6" height="6"/></g>
<g transform="translate(340,400) scale(3.4333333333333)"><rect width="6" height="6"/></g>
<g transform="translate(360,400) scale(3.4333333333333)"><rect width="6" height="6"/></g>
<g transform="translate(380,400) scale(3.4333333333333)"><rect width="6" height="6"/></g>
<g transform="translate(400,400) scale(3.4333333333333)"><rect width="6" height="6"/></g>
<g transform="translate(500,400) scale(3.4333333333333)"><rect width="6" height="6"/></g>
<g transform="translate(560,400) scale(3.4333333333333)"><rect width="6" height="6"/></g>
<g transform="translate(600,400) scale(3.4333333333333)"><rect width="6" height="6"/></g>
<g transform="translate(660,400) scale(3.4333333333333)"><rect width="6" height="6"/></g>
<g transform="translate(680,400) scale(3.4333333333333)"><rect width="6" height="6"/></g>
<g transform="translate(700,400) scale(3.4333333333333)"><rect width="6" height="6"/></g>
<g transform="translate(720,400) scale(3.4333333333333)"><rect width="6" height="6"/></g>
<g transform="translate(740,400) scale(3.4333333333333)"><rect width="6" height="6"/></g>
<g transform="translate(800,400) scale(3.4333333333333)"><rect width="6" height="6"/></g>
<g transform="translate(820,400) scale(3.4333333333333)"><rect width="6" height="6"/></g>
<g transform="translate(860,400) scale(3.4333333333333)"><rect width="6" height="6"/></g>
<g transform="translate(900,400) scale(3.4333333333333)"><rect width="6" height="6"/></g>
<g transform="translate(80,420) scale(3.4333333333333)"><rect width="6" height="6"/></g>
<g transform="translate(120,420) scale(3.4333333333333)"><rect width="6" height="6"/></g>
<g transform="translate(140,420) scale(3.4333333333333)"><rect width="6" height="6"/></g>
<g transform="translate(180,420) scale(3.4333333333333)"><rect width="6" height="6"/></g>
<g transform="translate(200,420) scale(3.4333333333333)"><rect width="6" height="6"/></g>
<g transform="translate(280,420) scale(3.4333333333333)"><rect width="6" height="6"/></g>
<g transform="translate(300,420) scale(3.4333333333333)"><rect width="6" height="6"/></g>
<g transform="translate(380,420) scale(3.4333333333333)"><rect width="6" height="6"/></g>
<g transform="translate(400,420) scale(3.4333333333333)"><rect width="6" height="6"/></g>
<g transform="translate(500,420) scale(3.4333333333333)"><rect width="6" height="6"/></g>
<g transform="translate(540,420) scale(3.4333333333333)"><rect width="6" height="6"/></g>
<g transform="translate(560,420) scale(3.4333333333333)"><rect width="6" height="6"/></g>
<g transform="translate(580,420) scale(3.4333333333333)"><rect width="6" height="6"/></g>
<g transform="translate(620,420) scale(3.4333333333333)"><rect width="6" height="6"/></g>
<g transform="translate(680,420) scale(3.4333333333333)"><rect width="6" height="6"/></g>
<g transform="translate(720,420) scale(3.4333333333333)"><rect width="6" height="6"/></g>
<g transform="translate(760,420) scale(3.4333333333333)"><rect width="6" height="6"/></g>
<g transform="translate(840,420) scale(3.4333333333333)"><rect width="6" height="6"/></g>
<g transform="translate(860,420) scale(3.4333333333333)"><rect width="6" height="6"/></g>
<g transform="translate(880,420) scale(3.4333333333333)"><rect width="6" height="6"/></g>
<g transform="translate(900,420) scale(3.4333333333333)"><rect width="6" height="6"/></g>
<g transform="translate(920,420) scale(3.4333333333333)"><rect width="6" height="6"/></g>
<g transform="translate(40,440) scale(3.4333333333333)"><rect width="6" height="6"/></g>
<g transform="translate(100,440) scale(3.4333333333333)"><rect width="6" height="6"/></g>
<g transform="translate(120,440) scale(3.4333333333333)"><rect width="6" height="6"/></g>
<g transform="translate(140,440) scale(3.4333333333333)"><rect width="6" height="6"/></g>
<g transform="translate(160,440) scale(3.4333333333333)"><rect width="6" height="6"/></g>
<g transform="translate(180,440) scale(3.4333333333333)"><rect width="6" height="6"/></g>
<g transform="translate(200,440) scale(3.4333333333333)"><rect width="6" height="6"/></g>
<g transform="translate(240,440) scale(3.4333333333333)"><rect width="6" height="6"/></g>
<g transform="translate(260,440) scale(3.4333333333333)"><rect width="6" height="6"/></g>
<g transform="translate(280,440) scale(3.4333333333333)"><rect width="6" height="6"/></g>
<g transform="translate(340,440) scale(3.4333333333333)"><rect width="6" height="6"/></g>
<g transform="translate(360,440) scale(3.4333333333333)"><rect width="6" height="6"/></g>
<g transform="translate(420,440) scale(3.4333333333333)"><rect width="6" height="6"/></g>
<g transform="translate(440,440) scale(3.4333333333333)"><rect width="6" height="6"/></g>
<g transform="translate(460,440) scale(3.4333333333333)"><rect width="6" height="6"/></g>
<g transform="translate(480,440) scale(3.4333333333333)"><rect width="6" height="6"/></g>
<g transform="translate(500,440) scale(3.4333333333333)"><rect width="6" height="6"/></g>
<g transform="translate(520,440) scale(3.4333333333333)"><rect width="6" height="6"/></g>
<g transform="translate(560,440) scale(3.4333333333333)"><rect width="6" height="6"/></g>
<g transform="translate(600,440) scale(3.4333333333333)"><rect width="6" height="6"/></g>
<g transform="translate(660,440) scale(3.4333333333333)"><rect width="6" height="6"/></g>
<g transform="translate(740,440) scale(3.4333333333333)"><rect width="6" height="6"/></g>
<g transform="translate(760,440) scale(3.4333333333333)"><rect width="6" height="6"/></g>
<g transform="translate(780,440) scale(3.4333333333333)"><rect width="6" height="6"/></g>
<g transform="translate(800,440) scale(3.4333333333333)"><rect width="6" height="6"/></g>
<g transform="translate(820,440) scale(3.4333333333333)"><rect width="6" height="6"/></g>
<g transform="translate(840,440) scale(3.4333333333333)"><rect width="6" height="6"/></g>
<g transform="translate(920,440) scale(3.4333333333333)"><rect width="6" height="6"/></g>
<g transform="translate(60,460) scale(3.4333333333333)"><rect width="6" height="6"/></g>
<g transform="translate(100,460) scale(3.4333333333333)"><rect width="6" height="6"/></g>
<g transform="translate(120,460) scale(3.4333333333333)"><rect width="6" height="6"/></g>
<g transform="translate(200,460) scale(3.4333333333333)"><rect width="6" height="6"/></g>
<g transform="translate(220,460) scale(3.4333333333333)"><rect width="6" height="6"/></g>
<g transform="translate(280,460) scale(3.4333333333333)"><rect width="6" height="6"/></g>
<g transform="translate(300,460) scale(3.4333333333333)"><rect width="6" height="6"/></g>
<g transform="translate(400,460) scale(3.4333333333333)"><rect width="6" height="6"/></g>
<g transform="translate(420,460) scale(3.4333333333333)"><rect width="6" height="6"/></g>
<g transform="translate(440,460) scale(3.4333333333333)"><rect width="6" height="6"/></g>
<g transform="translate(520,460) scale(3.4333333333333)"><rect width="6" height="6"/></g>
<g transform="translate(540,460) scale(3.4333333333333)"><rect width="6" height="6"/></g>
<g transform="translate(560,460) scale(3.4333333333333)"><rect width="6" height="6"/></g>
<g transform="translate(580,460) scale(3.4333333333333)"><rect width="6" height="6"/></g>
<g transform="translate(600,460) scale(3.4333333333333)"><rect width="6" height="6"/></g>
<g transform="translate(620,460) scale(3.4333333333333)"><rect width="6" height="6"/></g>
<g transform="translate(660,460) scale(3.4333333333333)"><rect width="6" height="6"/></g>
<g transform="translate(680,460) scale(3.4333333333333)"><rect width="6" height="6"/></g>
<g transform="translate(760,460) scale(3.4333333333333)"><rect width="6" height="6"/></g>
<g transform="translate(840,460) scale(3.4333333333333)"><rect width="6" height="6"/></g>
<g transform="translate(920,460) scale(3.4333333333333)"><rect width="6" height="6"/></g>
<g transform="translate(40,480) scale(3.4333333333333)"><rect width="6" height="6"/></g>
<g transform="translate(80,480) scale(3.4333333333333)"><rect width="6" height="6"/></g>
<g transform="translate(100,480) scale(3.4333333333333)"><rect width="6" height="6"/></g>
<g transform="translate(120,480) scale(3.4333333333333)"><rect width="6" height="6"/></g>
<g transform="translate(160,480) scale(3.4333333333333)"><rect width="6" height="6"/></g>
<g transform="translate(200,480) scale(3.4333333333333)"><rect width="6" height="6"/></g>
<g transform="translate(240,480) scale(3.4333333333333)"><rect width="6" height="6"/></g>
<g transform="translate(300,480) scale(3.4333333333333)"><rect width="6" height="6"/></g>
<g transform="translate(320,480) scale(3.4333333333333)"><rect width="6" height="6"/></g>
<g transform="translate(340,480) scale(3.4333333333333)"><rect width="6" height="6"/></g>
<g transform="translate(360,480) scale(3.4333333333333)"><rect width="6" height="6"/></g>
<g transform="translate(380,480) scale(3.4333333333333)"><rect width="6" height="6"/></g>
<g transform="translate(400,480) scale(3.4333333333333)"><rect width="6" height="6"/></g>
<g transform="translate(420,480) scale(3.4333333333333)"><rect width="6" height="6"/></g>
<g transform="translate(440,480) scale(3.4333333333333)"><rect width="6" height="6"/></g>
<g transform="translate(480,480) scale(3.4333333333333)"><rect width="6" height="6"/></g>
<g transform="translate(520,480) scale(3.4333333333333)"><rect width="6" height="6"/></g>
<g transform="translate(600,480) scale(3.4333333333333)"><rect width="6" height="6"/></g>
<g transform="translate(640,480) scale(3.4333333333333)"><rect width="6" height="6"/></g>
<g transform="translate(660,480) scale(3.4333333333333)"><rect width="6" height="6"/></g>
<g transform="translate(680,480) scale(3.4333333333333)"><rect width="6" height="6"/></g>
<g transform="translate(720,480) scale(3.4333333333333)"><rect width="6" height="6"/></g>
<g transform="translate(760,480) scale(3.4333333333333)"><rect width="6" height="6"/></g>
<g transform="translate(800,480) scale(3.4333333333333)"><rect width="6" height="6"/></g>
<g transform="translate(840,480) scale(3.4333333333333)"><rect width="6" height="6"/></g>
<g transform="translate(880,480) scale(3.4333333333333)"><rect width="6" height="6"/></g>
<g transform="translate(900,480) scale(3.4333333333333)"><rect width="6" height="6"/></g>
<g transform="translate(40,500) scale(3.4333333333333)"><rect width="6" height="6"/></g>
<g transform="translate(60,500) scale(3.4333333333333)"><rect width="6" height="6"/></g>
<g transform="translate(120,500) scale(3.4333333333333)"><rect width="6" height="6"/></g>
<g transform="translate(200,500) scale(3.4333333333333)"><rect width="6" height="6"/></g>
<g transform="translate(260,500) scale(3.4333333333333)"><rect width="6" height="6"/></g>
<g transform="translate(320,500) scale(3.4333333333333)"><rect width="6" height="6"/></g>
<g transform="translate(360,500) scale(3.4333333333333)"><rect width="6" height="6"/></g>
<g transform="translate(400,500) scale(3.4333333333333)"><rect width="6" height="6"/></g>
<g transform="translate(440,500) scale(3.4333333333333)"><rect width="6" height="6"/></g>
<g transform="translate(520,500) scale(3.4333333333333)"><rect width="6" height="6"/></g>
<g transform="translate(580,500) scale(3.4333333333333)"><rect width="6" height="6"/></g>
<g transform="translate(600,500) scale(3.4333333333333)"><rect width="6" height="6"/></g>
<g transform="translate(620,500) scale(3.4333333333333)"><rect width="6" height="6"/></g>
<g transform="translate(640,500) scale(3.4333333333333)"><rect width="6" height="6"/></g>
<g transform="translate(660,500) scale(3.4333333333333)"><rect width="6" height="6"/></g>
<g transform="translate(680,500) scale(3.4333333333333)"><rect width="6" height="6"/></g>
<g transform="translate(760,500) scale(3.4333333333333)"><rect width="6" height="6"/></g>
<g transform="translate(840,500) scale(3.4333333333333)"><rect width="6" height="6"/></g>
<g transform="translate(860,500) scale(3.4333333333333)"><rect width="6" height="6"/></g>
<g transform="translate(880,500) scale(3.4333333333333)"><rect width="6" height="6"/></g>
<g transform="translate(900,500) scale(3.4333333333333)"><rect width="6" height="6"/></g>
<g transform="translate(60,520) scale(3.4333333333333)"><rect width="6" height="6"/></g>
<g transform="translate(120,520) scale(3.4333333333333)"><rect width="6" height="6"/></g>
<g transform="translate(140,520) scale(3.4333333333333)"><rect width="6" height="6"/></g>
<g transform="translate(160,520) scale(3.4333333333333)"><rect width="6" height="6"/></g>
<g transform="translate(180,520) scale(3.4333333333333)"><rect width="6" height="6"/></g>
<g transform="translate(200,520) scale(3.4333333333333)"><rect width="6" height="6"/></g>
<g transform="translate(220,520) scale(3.4333333333333)"><rect width="6" height="6"/></g>
<g transform="translate(280,520) scale(3.4333333333333)"><rect width="6" height="6"/></g>
<g transform="translate(380,520) scale(3.4333333333333)"><rect width="6" height="6"/></g>
<g transform="translate(400,520) scale(3.4333333333333)"><rect width="6" height="6"/></g>
<g transform="translate(440,520) scale(3.4333333333333)"><rect width="6" height="6"/></g>
<g transform="translate(460,520) scale(3.4333333333333)"><rect width="6" height="6"/></g>
<g transform="translate(480,520) scale(3.4333333333333)"><rect width="6" height="6"/></g>
<g transform="translate(500,520) scale(3.4333333333333)"><rect width="6" height="6"/></g>
<g transform="translate(520,520) scale(3.4333333333333)"><rect width="6" height="6"/></g>
<g transform="translate(560,520) scale(3.4333333333333)"><rect width="6" height="6"/></g>
<g transform="translate(620,520) scale(3.4333333333333)"><rect width="6" height="6"/></g>
<g transform="translate(660,520) scale(3.4333333333333)"><rect width="6" height="6"/></g>
<g transform="translate(740,520) scale(3.4333333333333)"><rect width="6" height="6"/></g>
<g transform="translate(760,520) scale(3.4333333333333)"><rect width="6" height="6"/></g>
<g transform="translate(780,520) scale(3.4333333333333)"><rect width="6" height="6"/></g>
<g transform="translate(800,520) scale(3.4333333333333)"><rect width="6" height="6"/></g>
<g transform="translate(820,520) scale(3.4333333333333)"><rect width="6" height="6"/></g>
<g transform="translate(840,520) scale(3.4333333333333)"><rect width="6" height="6"/></g>
<g transform="translate(860,520) scale(3.4333333333333)"><rect width="6" height="6"/></g>
<g transform="translate(920,520) scale(3.4333333333333)"><rect width="6" height="6"/></g>
<g transform="translate(40,540) scale(3.4333333333333)"><rect width="6" height="6"/></g>
<g transform="translate(100,540) scale(3.4333333333333)"><rect width="6" height="6"/></g>
<g transform="translate(120,540) scale(3.4333333333333)"><rect width="6" height="6"/></g>
<g transform="translate(200,540) scale(3.4333333333333)"><rect width="6" height="6"/></g>
<g transform="translate(300,540) scale(3.4333333333333)"><rect width="6" height="6"/></g>
<g transform="translate(380,540) scale(3.4333333333333)"><rect width="6" height="6"/></g>
<g transform="translate(420,540) scale(3.4333333333333)"><rect width="6" height="6"/></g>
<g transform="translate(460,540) scale(3.4333333333333)"><rect width="6" height="6"/></g>
<g transform="translate(540,540) scale(3.4333333333333)"><rect width="6" height="6"/></g>
<g transform="translate(560,540) scale(3.4333333333333)"><rect width="6" height="6"/></g>
<g transform="translate(580,540) scale(3.4333333333333)"><rect width="6" height="6"/></g>
<g transform="translate(620,540) scale(3.4333333333333)"><rect width="6" height="6"/></g>
<g transform="translate(640,540) scale(3.4333333333333)"><rect width="6" height="6"/></g>
<g transform="translate(660,540) scale(3.4333333333333)"><rect width="6" height="6"/></g>
<g transform="translate(680,540) scale(3.4333333333333)"><rect width="6" height="6"/></g>
<g transform="translate(760,540) scale(3.4333333333333)"><rect width="6" height="6"/></g>
<g transform="translate(800,540) scale(3.4333333333333)"><rect width="6" height="6"/></g>
<g transform="translate(900,540) scale(3.4333333333333)"><rect width="6" height="6"/></g>
<g transform="translate(920,540) scale(3.4333333333333)"><rect width="6" height="6"/></g>
<g transform="translate(40,560) scale(3.4333333333333)"><rect width="6" height="6"/></g>
<g transform="translate(60,560) scale(3.4333333333333)"><rect width="6" height="6"/></g>
<g transform="translate(80,560) scale(3.4333333333333)"><rect width="6" height="6"/></g>
<g transform="translate(100,560) scale(3.4333333333333)"><rect width="6" height="6"/></g>
<g transform="translate(140,560) scale(3.4333333333333)"><rect width="6" height="6"/></g>
<g transform="translate(160,560) scale(3.4333333333333)"><rect width="6" height="6"/></g>
<g transform="translate(240,560) scale(3.4333333333333)"><rect width="6" height="6"/></g>
<g transform="translate(260,560) scale(3.4333333333333)"><rect width="6" height="6"/></g>
<g transform="translate(320,560) scale(3.4333333333333)"><rect width="6" height="6"/></g>
<g transform="translate(380,560) scale(3.4333333333333)"><rect width="6" height="6"/></g>
<g transform="translate(400,560) scale(3.4333333333333)"><rect width="6" height="6"/></g>
<g transform="translate(420,560) scale(3.4333333333333)"><rect width="6" height="6"/></g>
<g transform="translate(440,560) scale(3.4333333333333)"><rect width="6" height="6"/></g>
<g transform="translate(480,560) scale(3.4333333333333)"><rect width="6" height="6"/></g>
<g transform="translate(520,560) scale(3.4333333333333)"><rect width="6" height="6"/></g>
<g transform="translate(540,560) scale(3.4333333333333)"><rect width="6" height="6"/></g>
<g transform="translate(620,560) scale(3.4333333333333)"><rect width="6" height="6"/></g>
<g transform="translate(660,560) scale(3.4333333333333)"><rect width="6" height="6"/></g>
<g transform="translate(680,560) scale(3.4333333333333)"><rect width="6" height="6"/></g>
<g transform="translate(720,560) scale(3.4333333333333)"><rect width="6" height="6"/></g>
<g transform="translate(760,560) scale(3.4333333333333)"><rect width="6" height="6"/></g>
<g transform="translate(780,560) scale(3.4333333333333)"><rect width="6" height="6"/></g>
<g transform="translate(820,560) scale(3.4333333333333)"><rect width="6" height="6"/></g>
<g transform="translate(860,560) scale(3.4333333333333)"><rect width="6" height="6"/></g>
<g transform="translate(880,560) scale(3.4333333333333)"><rect width="6" height="6"/></g>
<g transform="translate(900,560) scale(3.4333333333333)"><rect width="6" height="6"/></g>
<g transform="translate(60,580) scale(3.4333333333333)"><rect width="6" height="6"/></g>
<g transform="translate(80,580) scale(3.4333333333333)"><rect width="6" height="6"/></g>
<g transform="translate(100,580) scale(3.4333333333333)"><rect width="6" height="6"/></g>
<g transform="translate(140,580) scale(3.4333333333333)"><rect width="6" height="6"/></g>
<g transform="translate(180,580) scale(3.4333333333333)"><rect width="6" height="6"/></g>
<g transform="translate(220,580) scale(3.4333333333333)"><rect width="6" height="6"/></g>
<g transform="translate(260,580) scale(3.4333333333333)"><rect width="6" height="6"/></g>
<g transform="translate(280,580) scale(3.4333333333333)"><rect width="6" height="6"/></g>
<g transform="translate(320,580) scale(3.4333333333333)"><rect width="6" height="6"/></g>
<g transform="translate(360,580) scale(3.4333333333333)"><rect width="6" height="6"/></g>
<g transform="translate(400,580) scale(3.4333333333333)"><rect width="6" height="6"/></g>
<g transform="translate(440,580) scale(3.4333333333333)"><rect width="6" height="6"/></g>
<g transform="translate(460,580) scale(3.4333333333333)"><rect width="6" height="6"/></g>
<g transform="translate(480,580) scale(3.4333333333333)"><rect width="6" height="6"/></g>
<g transform="translate(500,580) scale(3.4333333333333)"><rect width="6" height="6"/></g>
<g transform="translate(540,580) scale(3.4333333333333)"><rect width="6" height="6"/></g>
<g transform="translate(560,580) scale(3.4333333333333)"><rect width="6" height="6"/></g>
<g transform="translate(580,580) scale(3.4333333333333)"><rect width="6" height="6"/></g>
<g transform="translate(600,580) scale(3.4333333333333)"><rect width="6" height="6"/></g>
<g transform="translate(620,580) scale(3.4333333333333)"><rect width="6" height="6"/></g>
<g transform="translate(700,580) scale(3.4333333333333)"><rect width="6" height="6"/></g>
<g transform="translate(740,580) scale(3.4333333333333)"><rect width="6" height="6"/></g>
<g transform="translate(800,580) scale(3.4333333333333)"><rect width="6" height="6"/></g>
<g transform="translate(820,580) scale(3.4333333333333)"><rect width="6" height="6"/></g>
<g transform="translate(860,580) scale(3.4333333333333)"><rect width="6" height="6"/></g>
<g transform="translate(880,580) scale(3.4333333333333)"><rect width="6" height="6"/></g>
<g transform="translate(900,580) scale(3.4333333333333)"><rect width="6" height="6"/></g>
<g transform="translate(80,600) scale(3.4333333333333)"><rect width="6" height="6"/></g>
<g transform="translate(100,600) scale(3.4333333333333)"><rect width="6" height="6"/></g>
<g transform="translate(120,600) scale(3.4333333333333)"><rect width="6" height="6"/></g>
<g transform="translate(160,600) scale(3.4333333333333)"><rect width="6" height="6"/></g>
<g transform="translate(180,600) scale(3.4333333333333)"><rect width="6" height="6"/></g>
<g transform="translate(200,600) scale(3.4333333333333)"><rect width="6" height="6"/></g>
<g transform="translate(220,600) scale(3.4333333333333)"><rect width="6" height="6"/></g>
<g transform="translate(260,600) scale(3.4333333333333)"><rect width="6" height="6"/></g>
<g transform="translate(300,600) scale(3.4333333333333)"><rect width="6" height="6"/></g>
<g transform="translate(320,600) scale(3.4333333333333)"><rect width="6" height="6"/></g>
<g transform="translate(400,600) scale(3.4333333333333)"><rect width="6" height="6"/></g>
<g transform="translate(420,600) scale(3.4333333333333)"><rect width="6" height="6"/></g>
<g transform="translate(480,600) scale(3.4333333333333)"><rect width="6" height="6"/></g>
<g transform="translate(520,600) scale(3.4333333333333)"><rect width="6" height="6"/></g>
<g transform="translate(540,600) scale(3.4333333333333)"><rect width="6" height="6"/></g>
<g transform="translate(560,600) scale(3.4333333333333)"><rect width="6" height="6"/></g>
<g transform="translate(580,600) scale(3.4333333333333)"><rect width="6" height="6"/></g>
<g transform="translate(620,600) scale(3.4333333333333)"><rect width="6" height="6"/></g>
<g transform="translate(660,600) scale(3.4333333333333)"><rect width="6" height="6"/></g>
<g transform="translate(680,600) scale(3.4333333333333)"><rect width="6" height="6"/></g>
<g transform="translate(700,600) scale(3.4333333333333)"><rect width="6" height="6"/></g>
<g transform="translate(720,600) scale(3.4333333333333)"><rect width="6" height="6"/></g>
<g transform="translate(780,600) scale(3.4333333333333)"><rect width="6" height="6"/></g>
<g transform="translate(800,600) scale(3.4333333333333)"><rect width="6" height="6"/></g>
<g transform="translate(840,600) scale(3.4333333333333)"><rect width="6" height="6"/></g>
<g transform="translate(860,600) scale(3.4333333333333)"><rect width="6" height="6"/></g>
<g transform="translate(900,600) scale(3.4333333333333)"><rect width="6" height="6"/></g>
<g transform="translate(40,620) scale(3.4333333333333)"><rect width="6" height="6"/></g>
<g transform="translate(60,620) scale(3.4333333333333)"><rect width="6" height="6"/></g>
<g transform="translate(180,620) scale(3.4333333333333)"><rect width="6" height="6"/></g>
<g transform="translate(280,620) scale(3.4333333333333)"><rect width="6" height="6"/></g>
<g transform="translate(300,620) scale(3.4333333333333)"><rect width="6" height="6"/></g>
<g transform="translate(320,620) scale(3.4333333333333)"><rect width="6" height="6"/></g>
<g transform="translate(340,620) scale(3.4333333333333)"><rect width="6" height="6"/></g>
<g transform="translate(380,620) scale(3.4333333333333)"><rect width="6" height="6"/></g>
<g transform="translate(400,620) scale(3.4333333333333)"><rect width="6" height="6"/></g>
<g transform="translate(440,620) scale(3.4333333333333)"><rect width="6" height="6"/></g>
<g transform="translate(460,620) scale(3.4333333333333)"><rect width="6" height="6"/></g>
<g transform="translate(480,620) scale(3.4333333333333)"><rect width="6" height="6"/></g>
<g transform="translate(520,620) scale(3.4333333333333)"><rect width="6" height="6"/></g>
<g transform="translate(540,620) scale(3.4333333333333)"><rect width="6" height="6"/></g>
<g transform="translate(600,620) scale(3.4333333333333)"><rect width="6" height="6"/></g>
<g transform="translate(620,620) scale(3.4333333333333)"><rect width="6" height="6"/></g>
<g transform="translate(640,620) scale(3.4333333333333)"><rect width="6" height="6"/></g>
<g transform="translate(680,620) scale(3.4333333333333)"><rect width="6" height="6"/></g>
<g transform="translate(760,620) scale(3.4333333333333)"><rect width="6" height="6"/></g>
<g transform="translate(780,620) scale(3.4333333333333)"><rect width="6" height="6"/></g>
<g transform="translate(860,620) scale(3.4333333333333)"><rect width="6" height="6"/></g>
<g transform="translate(880,620) scale(3.4333333333333)"><rect width="6" height="6"/></g>
<g transform="translate(900,620) scale(3.4333333333333)"><rect width="6" height="6"/></g>
<g transform="translate(920,620) scale(3.4333333333333)"><rect width="6" height="6"/></g>
<g transform="translate(40,640) scale(3.4333333333333)"><rect width="6" height="6"/></g>
<g transform="translate(80,640) scale(3.4333333333333)"><rect width="6" height="6"/></g>
<g transform="translate(120,640) scale(3.4333333333333)"><rect width="6" height="6"/></g>
<g transform="translate(160,640) scale(3.4333333333333)"><rect width="6" height="6"/></g>
<g transform="translate(180,640) scale(3.4333333333333)"><rect width="6" height="6"/></g>
<g transform="translate(240,640) scale(3.4333333333333)"><rect width="6" height="6"/></g>
<g transform="translate(280,640) scale(3.4333333333333)"><rect width="6" height="6"/></g>
<g transform="translate(320,640) scale(3.4333333333333)"><rect width="6" height="6"/></g>
<g transform="translate(360,640) scale(3.4333333333333)"><rect width="6" height="6"/></g>
<g transform="translate(440,640) scale(3.4333333333333)"><rect width="6" height="6"/></g>
<g transform="translate(480,640) scale(3.4333333333333)"><rect width="6" height="6"/></g>
<g transform="translate(500,640) scale(3.4333333333333)"><rect width="6" height="6"/></g>
<g transform="translate(520,640) scale(3.4333333333333)"><rect width="6" height="6"/></g>
<g transform="translate(600,640) scale(3.4333333333333)"><rect width="6" height="6"/></g>
<g transform="translate(620,640) scale(3.4333333333333)"><rect width="6" height="6"/></g>
<g transform="translate(660,640) scale(3.4333333333333)"><rect width="6" height="6"/></g>
<g transform="translate(680,640) scale(3.4333333333333)"><rect width="6" height="6"/></g>
<g transform="translate(700,640) scale(3.4333333333333)"><rect width="6" height="6"/></g>
<g transform="translate(720,640) scale(3.4333333333333)"><rect width="6" height="6"/></g>
<g transform="translate(760,640) scale(3.4333333333333)"><rect width="6" height="6"/></g>
<g transform="translate(780,640) scale(3.4333333333333)"><rect width="6" height="6"/></g>
<g transform="translate(820,640) scale(3.4333333333333)"><rect width="6" height="6"/></g>
<g transform="translate(840,640) scale(3.4333333333333)"><rect width="6" height="6"/></g>
<g transform="translate(860,640) scale(3.4333333333333)"><rect width="6" height="6"/></g>
<g transform="translate(880,640) scale(3.4333333333333)"><rect width="6" height="6"/></g>
<g transform="translate(900,640) scale(3.4333333333333)"><rect width="6" height="6"/></g>
<g transform="translate(40,660) scale(3.4333333333333)"><rect width="6" height="6"/></g>
<g transform="translate(120,660) scale(3.4333333333333)"><rect width="6" height="6"/></g>
<g transform="translate(140,660) scale(3.4333333333333)"><rect width="6" height="6"/></g>
<g transform="translate(220,660) scale(3.4333333333333)"><rect width="6" height="6"/></g>
<g transform="translate(240,660) scale(3.4333333333333)"><rect width="6" height="6"/></g>
<g transform="translate(260,660) scale(3.4333333333333)"><rect width="6" height="6"/></g>
<g transform="translate(280,660) scale(3.4333333333333)"><rect width="6" height="6"/></g>
<g transform="translate(320,660) scale(3.4333333333333)"><rect width="6" height="6"/></g>
<g transform="translate(340,660) scale(3.4333333333333)"><rect width="6" height="6"/></g>
<g transform="translate(360,660) scale(3.4333333333333)"><rect width="6" height="6"/></g>
<g transform="translate(440,660) scale(3.4333333333333)"><rect width="6" height="6"/></g>
<g transform="translate(460,660) scale(3.4333333333333)"><rect width="6" height="6"/></g>
<g transform="translate(500,660) scale(3.4333333333333)"><rect width="6" height="6"/></g>
<g transform="translate(560,660) scale(3.4333333333333)"><rect width="6" height="6"/></g>
<g transform="translate(580,660) scale(3.4333333333333)"><rect width="6" height="6"/></g>
<g transform="translate(600,660) scale(3.4333333333333)"><rect width="6" height="6"/></g>
<g transform="translate(620,660) scale(3.4333333333333)"><rect width="6" height="6"/></g>
<g transform="translate(640,660) scale(3.4333333333333)"><rect width="6" height="6"/></g>
<g transform="translate(680,660) scale(3.4333333333333)"><rect width="6" height="6"/></g>
<g transform="translate(740,660) scale(3.4333333333333)"><rect width="6" height="6"/></g>
<g transform="translate(800,660) scale(3.4333333333333)"><rect width="6" height="6"/></g>
<g transform="translate(840,660) scale(3.4333333333333)"><rect width="6" height="6"/></g>
<g transform="translate(860,660) scale(3.4333333333333)"><rect width="6" height="6"/></g>
<g transform="translate(880,660) scale(3.4333333333333)"><rect width="6" height="6"/></g>
<g transform="translate(920,660) scale(3.4333333333333)"><rect width="6" height="6"/></g>
<g transform="translate(60,680) scale(3.4333333333333)"><rect width="6" height="6"/></g>
<g transform="translate(160,680) scale(3.4333333333333)"><rect width="6" height="6"/></g>
<g transform="translate(200,680) scale(3.4333333333333)"><rect width="6" height="6"/></g>
<g transform="translate(240,680) scale(3.4333333333333)"><rect width="6" height="6"/></g>
<g transform="translate(280,680) scale(3.4333333333333)"><rect width="6" height="6"/></g>
<g transform="translate(340,680) scale(3.4333333333333)"><rect width="6" height="6"/></g>
<g transform="translate(380,680) scale(3.4333333333333)"><rect width="6" height="6"/></g>
<g transform="translate(420,680) scale(3.4333333333333)"><rect width="6" height="6"/></g>
<g transform="translate(440,680) scale(3.4333333333333)"><rect width="6" height="6"/></g>
<g transform="translate(500,680) scale(3.4333333333333)"><rect width="6" height="6"/></g>
<g transform="translate(520,680) scale(3.4333333333333)"><rect width="6" height="6"/></g>
<g transform="translate(540,680) scale(3.4333333333333)"><rect width="6" height="6"/></g>
<g transform="translate(560,680) scale(3.4333333333333)"><rect width="6" height="6"/></g>
<g transform="translate(640,680) scale(3.4333333333333)"><rect width="6" height="6"/></g>
<g transform="translate(660,680) scale(3.4333333333333)"><rect width="6" height="6"/></g>
<g transform="translate(700,680) scale(3.4333333333333)"><rect width="6" height="6"/></g>
<g transform="translate(780,680) scale(3.4333333333333)"><rect width="6" height="6"/></g>
<g transform="translate(800,680) scale(3.4333333333333)"><rect width="6" height="6"/></g>
<g transform="translate(820,680) scale(3.4333333333333)"><rect width="6" height="6"/></g>
<g transform="translate(840,680) scale(3.4333333333333)"><rect width="6" height="6"/></g>
<g transform="translate(900,680) scale(3.4333333333333)"><rect width="6" height="6"/></g>
<g transform="translate(920,680) scale(3.4333333333333)"><rect width="6" height="6"/></g>
<g transform="translate(40,700) scale(3.4333333333333)"><rect width="6" height="6"/></g>
<g transform="translate(60,700) scale(3.4333333333333)"><rect width="6" height="6"/></g>
<g transform="translate(100,700) scale(3.4333333333333)"><rect width="6" height="6"/></g>
<g transform="translate(120,700) scale(3.4333333333333)"><rect width="6" height="6"/></g>
<g transform="translate(140,700) scale(3.4333333333333)"><rect width="6" height="6"/></g>
<g transform="translate(240,700) scale(3.4333333333333)"><rect width="6" height="6"/></g>
<g transform="translate(300,700) scale(3.4333333333333)"><rect width="6" height="6"/></g>
<g transform="translate(320,700) scale(3.4333333333333)"><rect width="6" height="6"/></g>
<g transform="translate(340,700) scale(3.4333333333333)"><rect width="6" height="6"/></g>
<g transform="translate(360,700) scale(3.4333333333333)"><rect width="6" height="6"/></g>
<g transform="translate(380,700) scale(3.4333333333333)"><rect width="6" height="6"/></g>
<g transform="translate(400,700) scale(3.4333333333333)"><rect width="6" height="6"/></g>
<g transform="translate(420,700) scale(3.4333333333333)"><rect width="6" height="6"/></g>
<g transform="translate(460,700) scale(3.4333333333333)"><rect width="6" height="6"/></g>
<g transform="translate(480,700) scale(3.4333333333333)"><rect width="6" height="6"/></g>
<g transform="translate(560,700) scale(3.4333333333333)"><rect width="6" height="6"/></g>
<g transform="translate(620,700) scale(3.4333333333333)"><rect width="6" height="6"/></g>
<g transform="translate(640,700) scale(3.4333333333333)"><rect width="6" height="6"/></g>
<g transform="translate(660,700) scale(3.4333333333333)"><rect width="6" height="6"/></g>
<g transform="translate(700,700) scale(3.4333333333333)"><rect width="6" height="6"/></g>
<g transform="translate(740,700) scale(3.4333333333333)"><rect width="6" height="6"/></g>
<g transform="translate(800,700) scale(3.4333333333333)"><rect width="6" height="6"/></g>
<g transform="translate(860,700) scale(3.4333333333333)"><rect width="6" height="6"/></g>
<g transform="translate(920,700) scale(3.4333333333333)"><rect width="6" height="6"/></g>
<g transform="translate(120,720) scale(3.4333333333333)"><rect width="6" height="6"/></g>
<g transform="translate(160,720) scale(3.4333333333333)"><rect width="6" height="6"/></g>
<g transform="translate(240,720) scale(3.4333333333333)"><rect width="6" height="6"/></g>
<g transform="translate(260,720) scale(3.4333333333333)"><rect width="6" height="6"/></g>
<g transform="translate(280,720) scale(3.4333333333333)"><rect width="6" height="6"/></g>
<g transform="translate(300,720) scale(3.4333333333333)"><rect width="6" height="6"/></g>
<g transform="translate(320,720) scale(3.4333333333333)"><rect width="6" height="6"/></g>
<g transform="translate(360,720) scale(3.4333333333333)"><rect width="6" height="6"/></g>
<g transform="translate(380,720) scale(3.4333333333333)"><rect width="6" height="6"/></g>
<g transform="translate(400,720) scale(3.4333333333333)"><rect width="6" height="6"/></g>
<g transform="translate(420,720) scale(3.4333333333333)"><rect width="6" height="6"/></g>
<g transform="translate(440,720) scale(3.4333333333333)"><rect width="6" height="6"/></g>
<g transform="translate(460,720) scale(3.4333333333333)"><rect width="6" height="6"/></g>
<g transform="translate(540,720) scale(3.4333333333333)"><rect width="6" height="6"/></g>
<g transform="translate(620,720) scale(3.4333333333333)"><rect width="6" height="6"/></g>
<g transform="translate(660,720) scale(3.4333333333333)"><rect width="6" height="6"/></g>
<g transform="translate(680,720) scale(3.4333333333333)"><rect width="6" height="6"/></g>
<g transform="translate(700,720) scale(3.4333333333333)"><rect width="6" height="6"/></g>
<g transform="translate(720,720) scale(3.4333333333333)"><rect width="6" height="6"/></g>
<g transform="translate(740,720) scale(3.4333333333333)"><rect width="6" height="6"/></g>
<g transform="translate(760,720) scale(3.4333333333333)"><rect width="6" height="6"/></g>
<g transform="translate(780,720) scale(3.4333333333333)"><rect width="6" height="6"/></g>
<g transform="translate(800,720) scale(3.4333333333333)"><rect width="6" height="6"/></g>
<g transform="translate(820,720) scale(3.4333333333333)"><rect width="6" height="6"/></g>
<g transform="translate(860,720) scale(3.4333333333333)"><rect width="6" height="6"/></g>
<g transform="translate(880,720) scale(3.4333333333333)"><rect width="6" height="6"/></g>
<g transform="translate(900,720) scale(3.4333333333333)"><rect width="6" height="6"/></g>
<g transform="translate(60,740) scale(3.4333333333333)"><rect width="6" height="6"/></g>
<g transform="translate(80,740) scale(3.4333333333333)"><rect width="6" height="6"/></g>
<g transform="translate(100,740) scale(3.4333333333333)"><rect width="6" height="6"/></g>
<g transform="translate(120,740) scale(3.4333333333333)"><rect width="6" height="6"/></g>
<g transform="translate(200,740) scale(3.4333333333333)"><rect width="6" height="6"/></g>
<g transform="translate(240,740) scale(3.4333333333333)"><rect width="6" height="6"/></g>
<g transform="translate(300,740) scale(3.4333333333333)"><rect width="6" height="6"/></g>
<g transform="translate(320,740) scale(3.4333333333333)"><rect width="6" height="6"/></g>
<g transform="translate(340,740) scale(3.4333333333333)"><rect width="6" height="6"/></g>
<g transform="translate(360,740) scale(3.4333333333333)"><rect width="6" height="6"/></g>
<g transform="translate(380,740) scale(3.4333333333333)"><rect width="6" height="6"/></g>
<g transform="translate(400,740) scale(3.4333333333333)"><rect width="6" height="6"/></g>
<g transform="translate(460,740) scale(3.4333333333333)"><rect width="6" height="6"/></g>
<g transform="translate(480,740) scale(3.4333333333333)"><rect width="6" height="6"/></g>
<g transform="translate(520,740) scale(3.4333333333333)"><rect width="6" height="6"/></g>
<g transform="translate(600,740) scale(3.4333333333333)"><rect width="6" height="6"/></g>
<g transform="translate(620,740) scale(3.4333333333333)"><rect width="6" height="6"/></g>
<g transform="translate(640,740) scale(3.4333333333333)"><rect width="6" height="6"/></g>
<g transform="translate(680,740) scale(3.4333333333333)"><rect width="6" height="6"/></g>
<g transform="translate(700,740) scale(3.4333333333333)"><rect width="6" height="6"/></g>
<g transform="translate(740,740) scale(3.4333333333333)"><rect width="6" height="6"/></g>
<g transform="translate(860,740) scale(3.4333333333333)"><rect width="6" height="6"/></g>
<g transform="translate(880,740) scale(3.4333333333333)"><rect width="6" height="6"/></g>
<g transform="translate(900,740) scale(3.4333333333333)"><rect width="6" height="6"/></g>
<g transform="translate(40,760) scale(3.4333333333333)"><rect width="6" height="6"/></g>
<g transform="translate(100,760) scale(3.4333333333333)"><rect width="6" height="6"/></g>
<g transform="translate(120,760) scale(3.4333333333333)"><rect width="6" height="6"/></g>
<g transform="translate(160,760) scale(3.4333333333333)"><rect width="6" height="6"/></g>
<g transform="translate(180,760) scale(3.4333333333333)"><rect width="6" height="6"/></g>
<g transform="translate(260,760) scale(3.4333333333333)"><rect width="6" height="6"/></g>
<g transform="translate(300,760) scale(3.4333333333333)"><rect width="6" height="6"/></g>
<g transform="translate(320,760) scale(3.4333333333333)"><rect width="6" height="6"/></g>
<g transform="translate(340,760) scale(3.4333333333333)"><rect width="6" height="6"/></g>
<g transform="translate(380,760) scale(3.4333333333333)"><rect width="6" height="6"/></g>
<g transform="translate(420,760) scale(3.4333333333333)"><rect width="6" height="6"/></g>
<g transform="translate(440,760) scale(3.4333333333333)"><rect width="6" height="6"/></g>
<g transform="translate(460,760) scale(3.4333333333333)"><rect width="6" height="6"/></g>
<g transform="translate(480,760) scale(3.4333333333333)"><rect width="6" height="6"/></g>
<g transform="translate(500,760) scale(3.4333333333333)"><rect width="6" height="6"/></g>
<g transform="translate(520,760) scale(3.4333333333333)"><rect width="6" height="6"/></g>
<g transform="translate(560,760) scale(3.4333333333333)"><rect width="6" height="6"/></g>
<g transform="translate(620,760) scale(3.4333333333333)"><rect width="6" height="6"/></g>
<g transform="translate(640,760) scale(3.4333333333333)"><rect width="6" height="6"/></g>
<g transform="translate(660,760) scale(3.4333333333333)"><rect width="6" height="6"/></g>
<g transform="translate(760,760) scale(3.4333333333333)"><rect width="6" height="6"/></g>
<g transform="translate(780,760) scale(3.4333333333333)"><rect width="6" height="6"/></g>
<g transform="translate(800,760) scale(3.4333333333333)"><rect width="6" height="6"/></g>
<g transform="translate(820,760) scale(3.4333333333333)"><rect width="6" height="6"/></g>
<g transform="translate(840,760) scale(3.4333333333333)"><rect width="6" height="6"/></g>
<g transform="translate(860,760) scale(3.4333333333333)"><rect width="6" height="6"/></g>
<g transform="translate(900,760) scale(3.4333333333333)"><rect width="6" height="6"/></g>
<g transform="translate(200,780) scale(3.4333333333333)"><rect width="6" height="6"/></g>
<g transform="translate(260,780) scale(3.4333333333333)"><rect width="6" height="6"/></g>
<g transform="translate(300,780) scale(3.4333333333333)"><rect width="6" height="6"/></g>
<g transform="translate(340,780) scale(3.4333333333333)"><rect width="6" height="6"/></g>
<g transform="translate(380,780) scale(3.4333333333333)"><rect width="6" height="6"/></g>
<g transform="translate(420,780) scale(3.4333333333333)"><rect width="6" height="6"/></g>
<g transform="translate(440,780) scale(3.4333333333333)"><rect width="6" height="6"/></g>
<g transform="translate(520,780) scale(3.4333333333333)"><rect width="6" height="6"/></g>
<g transform="translate(540,780) scale(3.4333333333333)"><rect width="6" height="6"/></g>
<g transform="translate(560,780) scale(3.4333333333333)"><rect width="6" height="6"/></g>
<g transform="translate(600,780) scale(3.4333333333333)"><rect width="6" height="6"/></g>
<g transform="translate(640,780) scale(3.4333333333333)"><rect width="6" height="6"/></g>
<g transform="translate(660,780) scale(3.4333333333333)"><rect width="6" height="6"/></g>
<g transform="translate(700,780) scale(3.4333333333333)"><rect width="6" height="6"/></g>
<g transform="translate(740,780) scale(3.4333333333333)"><rect width="6" height="6"/></g>
<g transform="translate(760,780) scale(3.4333333333333)"><rect width="6" height="6"/></g>
<g transform="translate(840,780) scale(3.4333333333333)"><rect width="6" height="6"/></g>
<g transform="translate(860,780) scale(3.4333333333333)"><rect width="6" height="6"/></g>
<g transform="translate(920,780) scale(3.4333333333333)"><rect width="6" height="6"/></g>
<g transform="translate(200,800) scale(3.4333333333333)"><rect width="6" height="6"/></g>
<g transform="translate(220,800) scale(3.4333333333333)"><rect width="6" height="6"/></g>
<g transform="translate(260,800) scale(3.4333333333333)"><rect width="6" height="6"/></g>
<g transform="translate(300,800) scale(3.4333333333333)"><rect width="6" height="6"/></g>
<g transform="translate(360,800) scale(3.4333333333333)"><rect width="6" height="6"/></g>
<g transform="translate(440,800) scale(3.4333333333333)"><rect width="6" height="6"/></g>
<g transform="translate(480,800) scale(3.4333333333333)"><rect width="6" height="6"/></g>
<g transform="translate(520,800) scale(3.4333333333333)"><rect width="6" height="6"/></g>
<g transform="translate(540,800) scale(3.4333333333333)"><rect width="6" height="6"/></g>
<g transform="translate(580,800) scale(3.4333333333333)"><rect width="6" height="6"/></g>
<g transform="translate(760,800) scale(3.4333333333333)"><rect width="6" height="6"/></g>
<g transform="translate(800,800) scale(3.4333333333333)"><rect width="6" height="6"/></g>
<g transform="translate(840,800) scale(3.4333333333333)"><rect width="6" height="6"/></g>
<g transform="translate(860,800) scale(3.4333333333333)"><rect width="6" height="6"/></g>
<g transform="translate(880,800) scale(3.4333333333333)"><rect width="6" height="6"/></g>
<g transform="translate(900,800) scale(3.4333333333333)"><rect width="6" height="6"/></g>
<g transform="translate(200,820) scale(3.4333333333333)"><rect width="6" height="6"/></g>
<g transform="translate(260,820) scale(3.4333333333333)"><rect width="6" height="6"/></g>
<g transform="translate(300,820) scale(3.4333333333333)"><rect width="6" height="6"/></g>
<g transform="translate(360,820) scale(3.4333333333333)"><rect width="6" height="6"/></g>
<g transform="translate(440,820) scale(3.4333333333333)"><rect width="6" height="6"/></g>
<g transform="translate(520,820) scale(3.4333333333333)"><rect width="6" height="6"/></g>
<g transform="translate(580,820) scale(3.4333333333333)"><rect width="6" height="6"/></g>
<g transform="translate(600,820) scale(3.4333333333333)"><rect width="6" height="6"/></g>
<g transform="translate(620,820) scale(3.4333333333333)"><rect width="6" height="6"/></g>
<g transform="translate(680,820) scale(3.4333333333333)"><rect width="6" height="6"/></g>
<g transform="translate(720,820) scale(3.4333333333333)"><rect width="6" height="6"/></g>
<g transform="translate(740,820) scale(3.4333333333333)"><rect width="6" height="6"/></g>
<g transform="translate(760,820) scale(3.4333333333333)"><rect width="6" height="6"/></g>
<g transform="translate(840,820) scale(3.4333333333333)"><rect width="6" height="6"/></g>
<g transform="translate(860,820) scale(3.4333333333333)"><rect width="6" height="6"/></g>
<g transform="translate(880,820) scale(3.4333333333333)"><rect width="6" height="6"/></g>
<g transform="translate(900,820) scale(3.4333333333333)"><rect width="6" height="6"/></g>
<g transform="translate(200,840) scale(3.4333333333333)"><rect width="6" height="6"/></g>
<g transform="translate(220,840) scale(3.4333333333333)"><rect width="6" height="6"/></g>
<g transform="translate(280,840) scale(3.4333333333333)"><rect width="6" height="6"/></g>
<g transform="translate(300,840) scale(3.4333333333333)"><rect width="6" height="6"/></g>
<g transform="translate(420,840) scale(3.4333333333333)"><rect width="6" height="6"/></g>
<g transform="translate(440,840) scale(3.4333333333333)"><rect width="6" height="6"/></g>
<g transform="translate(460,840) scale(3.4333333333333)"><rect width="6" height="6"/></g>
<g transform="translate(480,840) scale(3.4333333333333)"><rect width="6" height="6"/></g>
<g transform="translate(500,840) scale(3.4333333333333)"><rect width="6" height="6"/></g>
<g transform="translate(520,840) scale(3.4333333333333)"><rect width="6" height="6"/></g>
<g transform="translate(540,840) scale(3.4333333333333)"><rect width="6" height="6"/></g>
<g transform="translate(560,840) scale(3.4333333333333)"><rect width="6" height="6"/></g>
<g transform="translate(580,840) scale(3.4333333333333)"><rect width="6" height="6"/></g>
<g transform="translate(720,840) scale(3.4333333333333)"><rect width="6" height="6"/></g>
<g transform="translate(740,840) scale(3.4333333333333)"><rect width="6" height="6"/></g>
<g transform="translate(760,840) scale(3.4333333333333)"><rect width="6" height="6"/></g>
<g transform="translate(780,840) scale(3.4333333333333)"><rect width="6" height="6"/></g>
<g transform="translate(800,840) scale(3.4333333333333)"><rect width="6" height="6"/></g>
<g transform="translate(820,840) scale(3.4333333333333)"><rect width="6" height="6"/></g>
<g transform="translate(840,840) scale(3.4333333333333)"><rect width="6" height="6"/></g>
<g transform="translate(860,840) scale(3.4333333333333)"><rect width="6" height="6"/></g>
<g transform="translate(900,840) scale(3.4333333333333)"><rect width="6" height="6"/></g>
<g transform="translate(200,860) scale(3.4333333333333)"><rect width="6" height="6"/></g>
<g transform="translate(220,860) scale(3.4333333333333)"><rect width="6" height="6"/></g>
<g transform="translate(320,860) scale(3.4333333333333)"><rect width="6" height="6"/></g>
<g transform="translate(340,860) scale(3.4333333333333)"><rect width="6" height="6"/></g>
<g transform="translate(380,860) scale(3.4333333333333)"><rect width="6" height="6"/></g>
<g transform="translate(420,860) scale(3.4333333333333)"><rect width="6" height="6"/></g>
<g transform="translate(440,860) scale(3.4333333333333)"><rect width="6" height="6"/></g>
<g transform="translate(460,860) scale(3.4333333333333)"><rect width="6" height="6"/></g>
<g transform="translate(540,860) scale(3.4333333333333)"><rect width="6" height="6"/></g>
<g transform="translate(600,860) scale(3.4333333333333)"><rect width="6" height="6"/></g>
<g transform="translate(620,860) scale(3.4333333333333)"><rect width="6" height="6"/></g>
<g transform="translate(640,860) scale(3.4333333333333)"><rect width="6" height="6"/></g>
<g transform="translate(700,860) scale(3.4333333333333)"><rect width="6" height="6"/></g>
<g transform="translate(840,860) scale(3.4333333333333)"><rect width="6" height="6"/></g>
<g transform="translate(860,860) scale(3.4333333333333)"><rect width="6" height="6"/></g>
<g transform="translate(200,880) scale(3.4333333333333)"><rect width="6" height="6"/></g>
<g transform="translate(220,880) scale(3.4333333333333)"><rect width="6" height="6"/></g>
<g transform="translate(240,880) scale(3.4333333333333)"><rect width="6" height="6"/></g>
<g transform="translate(260,880) scale(3.4333333333333)"><rect width="6" height="6"/></g>
<g transform="translate(300,880) scale(3.4333333333333)"><rect width="6" height="6"/></g>
<g transform="translate(380,880) scale(3.4333333333333)"><rect width="6" height="6"/></g>
<g transform="translate(400,880) scale(3.4333333333333)"><rect width="6" height="6"/></g>
<g transform="translate(440,880) scale(3.4333333333333)"><rect width="6" height="6"/></g>
<g transform="translate(500,880) scale(3.4333333333333)"><rect width="6" height="6"/></g>
<g transform="translate(520,880) scale(3.4333333333333)"><rect width="6" height="6"/></g>
<g transform="translate(540,880) scale(3.4333333333333)"><rect width="6" height="6"/></g>
<g transform="translate(660,880) scale(3.4333333333333)"><rect width="6" height="6"/></g>
<g transform="translate(700,880) scale(3.4333333333333)"><rect width="6" height="6"/></g>
<g transform="translate(720,880) scale(3.4333333333333)"><rect width="6" height="6"/></g>
<g transform="translate(760,880) scale(3.4333333333333)"><rect width="6" height="6"/></g>
<g transform="translate(900,880) scale(3.4333333333333)"><rect width="6" height="6"/></g>
<g transform="translate(200,900) scale(3.4333333333333)"><rect width="6" height="6"/></g>
<g transform="translate(220,900) scale(3.4333333333333)"><rect width="6" height="6"/></g>
<g transform="translate(260,900) scale(3.4333333333333)"><rect width="6" height="6"/></g>
<g transform="translate(300,900) scale(3.4333333333333)"><rect width="6" height="6"/></g>
<g transform="translate(320,900) scale(3.4333333333333)"><rect width="6" height="6"/></g>
<g transform="translate(360,900) scale(3.4333333333333)"><rect width="6" height="6"/></g>
<g transform="translate(380,900) scale(3.4333333333333)"><rect width="6" height="6"/></g>
<g transform="translate(400,900) scale(3.4333333333333)"><rect width="6" height="6"/></g>
<g transform="translate(420,900) scale(3.4333333333333)"><rect width="6" height="6"/></g>
<g transform="translate(460,900) scale(3.4333333333333)"><rect width="6" height="6"/></g>
<g transform="translate(540,900) scale(3.4333333333333)"><rect width="6" height="6"/></g>
<g transform="translate(560,900) scale(3.4333333333333)"><rect width="6" height="6"/></g>
<g transform="translate(640,900) scale(3.4333333333333)"><rect width="6" height="6"/></g>
<g transform="translate(680,900) scale(3.4333333333333)"><rect width="6" height="6"/></g>
<g transform="translate(700,900) scale(3.4333333333333)"><rect width="6" height="6"/></g>
<g transform="translate(720,900) scale(3.4333333333333)"><rect width="6" height="6"/></g>
<g transform="translate(780,900) scale(3.4333333333333)"><rect width="6" height="6"/></g>
<g transform="translate(820,900) scale(3.4333333333333)"><rect width="6" height="6"/></g>
<g transform="translate(860,900) scale(3.4333333333333)"><rect width="6" height="6"/></g>
<g transform="translate(880,900) scale(3.4333333333333)"><rect width="6" height="6"/></g>
<g transform="translate(240,920) scale(3.4333333333333)"><rect width="6" height="6"/></g>
<g transform="translate(260,920) scale(3.4333333333333)"><rect width="6" height="6"/></g>
<g transform="translate(280,920) scale(3.4333333333333)"><rect width="6" height="6"/></g>
<g transform="translate(340,920) scale(3.4333333333333)"><rect width="6" height="6"/></g>
<g transform="translate(400,920) scale(3.4333333333333)"><rect width="6" height="6"/></g>
<g transform="translate(420,920) scale(3.4333333333333)"><rect width="6" height="6"/></g>
<g transform="translate(440,920) scale(3.4333333333333)"><rect width="6" height="6"/></g>
<g transform="translate(460,920) scale(3.4333333333333)"><rect width="6" height="6"/></g>
<g transform="translate(480,920) scale(3.4333333333333)"><rect width="6" height="6"/></g>
<g transform="translate(520,920) scale(3.4333333333333)"><rect width="6" height="6"/></g>
<g transform="translate(560,920) scale(3.4333333333333)"><rect width="6" height="6"/></g>
<g transform="translate(580,920) scale(3.4333333333333)"><rect width="6" height="6"/></g>
<g transform="translate(620,920) scale(3.4333333333333)"><rect width="6" height="6"/></g>
<g transform="translate(640,920) scale(3.4333333333333)"><rect width="6" height="6"/></g>
<g transform="translate(760,920) scale(3.4333333333333)"><rect width="6" height="6"/></g>
<g transform="translate(780,920) scale(3.4333333333333)"><rect width="6" height="6"/></g>
<g transform="translate(800,920) scale(3.4333333333333)"><rect width="6" height="6"/></g>
<g transform="translate(860,920) scale(3.4333333333333)"><rect width="6" height="6"/></g>
<g transform="translate(900,920) scale(3.4333333333333)"><rect width="6" height="6"/></g>
<g transform="translate(40,40)"><g transform="scale(10)"><path d="M0,0v14h14V0H0z M12,12H2V2h10V12z"/></g></g>
<g transform="translate(800,40)"><g transform="scale(10)"><path d="M0,0v14h14V0H0z M12,12H2V2h10V12z"/></g></g>
<g transform="translate(40,800)"><g transform="scale(10)"><path d="M0,0v14h14V0H0z M12,12H2V2h10V12z"/></g></g>
<g transform="translate(80,80)"><g transform="scale(10)"><rect width="6" height="6"/></g></g>
<g transform="translate(840,80)"><g transform="scale(10)"><rect width="6" height="6"/></g></g>
<g transform="translate(80,840)"><g transform="scale(10)"><rect width="6" height="6"/></g></g>
</g></svg>
